HIERARCHY
ROOT Hips
{
	OFFSET 0.0 98.73459935188293 0.0
	CHANNELS 6 Xposition Yposition Zposition Zrotation Xrotation Yrotation
	JOINT Spine
	{
		OFFSET 0.48144892789423466 8.302587270736694 -2.877936139702797
		CHANNELS 3 Zrotation Xrotation Yrotation
		JOINT Chest
		{
			OFFSET -0.29696932760998607 14.349877834320068 6.996249035000801
			CHANNELS 3 Zrotation Xrotation Yrotation
			JOINT UpperChest
			{
				OFFSET 0.3466727561317384 5.402982234954834 3.162853419780731
				CHANNELS 3 Zrotation Xrotation Yrotation
				JOINT Neck
				{
					OFFSET 2.163481991738081 20.72303295135498 8.783498406410217
					CHANNELS 3 Zrotation Xrotation Yrotation
					JOINT Head
					{
						OFFSET -1.0770224034786224 -3.8443922996520996 11.200332641601562
						CHANNELS 3 Zrotation Xrotation Yrotation
						End Site
						{
							OFFSET 0 0 0
						}
					}
				}
				JOINT LeftShoulder
				{
					OFFSET 8.362667541950941 12.066149711608887 4.260458052158356
					CHANNELS 3 Zrotation Xrotation Yrotation
					JOINT LeftUpperArm
					{
						OFFSET 12.8469817340374 -1.0401606559753418 0.4102632403373718
						CHANNELS 3 Zrotation Xrotation Yrotation
						JOINT LeftLowerArm
						{
							OFFSET 3.5241201519966125 -20.394444465637207 -18.37311163544655
							CHANNELS 3 Zrotation Xrotation Yrotation
							JOINT LeftHand
							{
								OFFSET 9.399691224098206 -22.64796495437622 2.9223084449768066
								CHANNELS 3 Zrotation Xrotation Yrotation
								End Site
								{
									OFFSET 0 0 0
								}
							}
						}
					}
				}
				JOINT RightShoulder
				{
					OFFSET -7.011356670409441 14.048516750335693 4.411850124597549
					CHANNELS 3 Zrotation Xrotation Yrotation
					JOINT RightUpperArm
					{
						OFFSET -11.983946710824966 -1.370680332183838 -2.167729288339615
						CHANNELS 3 Zrotation Xrotation Yrotation
						JOINT RightLowerArm
						{
							OFFSET -2.0093873143196106 -23.916828632354736 -15.29955379664898
							CHANNELS 3 Zrotation Xrotation Yrotation
							JOINT RightHand
							{
								OFFSET -12.075354158878326 -23.368489742279053 0.3974545747041702
								CHANNELS 3 Zrotation Xrotation Yrotation
								End Site
								{
									OFFSET 0 0 0
								}
							}
						}
					}
				}
			}
		}
	}
	JOINT LeftUpperLeg
	{
		OFFSET 5.442648380994797 -12.02470064163208 -1.0071414522826672
		CHANNELS 3 Zrotation Xrotation Yrotation
		JOINT LeftLowerLeg
		{
			OFFSET 2.6011213660240173 -36.93385720252991 2.4444601498544216
			CHANNELS 3 Zrotation Xrotation Yrotation
			JOINT LeftFoot
			{
				OFFSET -8.511854708194733 -43.096923828125 -0.4461701959371567
				CHANNELS 3 Zrotation Xrotation Yrotation
				JOINT LeftToe
				{
					OFFSET 5.648314952850342 -5.47821968793869 11.842536181211472
					CHANNELS 3 Zrotation Xrotation Yrotation
					End Site
					{
						OFFSET 0 0 0
					}
				}
			}
		}
	}
	JOINT RightUpperLeg
	{
		OFFSET -6.814553588628769 -12.192082405090332 -3.0690601095557213
		CHANNELS 3 Zrotation Xrotation Yrotation
		JOINT RightLowerLeg
		{
			OFFSET -6.281068176031113 -35.71212887763977 0.21993499249219894
			CHANNELS 3 Zrotation Xrotation Yrotation
			JOINT RightFoot
			{
				OFFSET 2.0017676055431366 -43.01717281341553 2.5388412177562714
				CHANNELS 3 Zrotation Xrotation Yrotation
				JOINT RightToe
				{
					OFFSET -6.210248917341232 -5.943999253213406 12.186853587627411
					CHANNELS 3 Zrotation Xrotation Yrotation
					End Site
					{
						OFFSET 0 0 0
					}
				}
			}
		}
	}
}
MOTION
Frames: 5
Frame Time: 0.03333333333333333
0.0 0.9873459935188293 0.0 -1.0636872743949346 -6.3320855046798705 -0.058838675301432906 -80.87512677951392 -28.409760008198383 -47.168139804548545 86.02796233095359 -35.385041980211604 62.37515440011735 0.0 0.0 0.0 -7.585013129507593 -2.9105430146169455 -0.9034275968726965 7.436598471987144 -4.8944411345923005 1.2392876978635472 3.6401317939596884 31.98729334764356 -1.875768072421046 -4.133369643451922 1.1869800255380423 -0.1477287827195094 2.83810690969176 -0.6706600323861106 0.15271328987652277 -0.39983871105945673 0.4593511387770921 0.20566297837967137 56.48332907123667 -48.88765991281201 40.53594917590723 -39.93473433679784 -46.95669688949587 -22.37129000422797 -0.2432610709260937 -0.984082386611025 0.20445702218793413 -13.189636033983621 -5.915254885722446 7.6135862799638385 12.69350461157078 -7.047839329028584 -6.497440958892564 65.02841479030371 79.28634051841397 -69.11476657097509 -50.161308335624305 -3.968109323203703 15.026138267096751 64.20076121664995 -20.003936716578277 -15.788259906233177 -53.989689616938364 -19.102714189843063 48.70056692187683 57.08516562033694 -23.59275485472912 -29.595212574576657 4.511632385432582 -35.26041331336092 -12.339011295506815 -11.529330025735005 -20.27957592299489 7.876346525169803
-0.0007077918853610754 0.9874032735824585 -0.0019802660681307316 -1.0738355058964917 -6.326665476423715 -0.05934911736212907 -81.02959760492756 -28.439682815803856 -47.25328685613894 85.97143139586987 -35.22329088532061 62.25498475714118 0.0 0.0 0.0 -7.5684814178725315 -2.9724647430893927 -0.9280368078124817 7.4565892376396645 -4.909932496591438 1.2628913405192215 3.6115997010081866 32.039570712561925 -1.905195946243201 -4.116098914683802 1.2209745812061499 -0.14839049537079224 2.821592559271445 -0.6693838471387416 0.15797626059116754 -0.3839596029142731 0.4924323588568126 0.19832247399686204 56.949833103537024 -49.1216212445328 40.84426038866007 -39.42505564197889 -47.01327234319571 -22.078275347476133 -0.2603564252871488 -1.0855543577969935 0.22029759282273761 -13.300689715224653 -6.111221391325977 7.766312566343253 12.675350447380495 -7.315993938993134 -6.567523428687475 65.528725870165 79.36105430682647 -69.5293952374623 -50.07509473446446 -3.8373102240472434 15.005756210101586 63.93322030585468 -20.006358674384895 -15.598191268319932 -54.13388449520751 -18.94655356480323 48.51559229843548 57.49936400588521 -23.828674152478072 -29.12881320207042 4.283536334025771 -35.38063956840082 -12.289791866344254 -11.697012630991187 -20.29640230199431 7.826789237194646
-0.0013166771968826652 0.9872435927391052 -0.0036855321377515793 -1.1006012811658608 -6.3016709918282965 -0.060587708553287094 -81.16946732616088 -28.41678323710304 -47.20672323629779 85.82475117466356 -35.10399278761639 62.10689455575469 0.0 0.0 0.0 -7.508944025199447 -3.019319465433563 -0.9489096202792328 7.450486173168233 -4.8840653241368095 1.2630969954185047 3.6132901479423163 31.909473673149034 -1.9495021977707792 -4.093056947549499 1.2595592615730762 -0.14801486441596068 2.828411890791312 -0.6700613874021919 0.15927910312102697 -0.36613804580189446 0.5133124200578015 0.18873326381285474 57.14145131188694 -49.47898805697279 41.015813091292706 -39.31508865691493 -47.27626575802307 -22.085381482121917 -0.2726929652549292 -1.1672282590610228 0.23071187764910145 -13.395390803295161 -6.265084684988244 7.847235056443246 12.660569581464031 -7.5329448075726315 -6.585505594622875 65.0829245897614 79.42689069555202 -68.96670945974289 -50.25437849054783 -3.6443860710315485 14.92263534927742 63.809637502136624 -19.923233356897004 -15.292342998670089 -54.38825073917315 -18.644276376880995 48.255302765754465 57.932979774616136 -23.920774319859778 -28.54222658962329 4.0660968385829195 -35.56630847652063 -12.17727981765856 -11.764476226279896 -20.157032886884327 7.7191020225205556
-0.0019000150496140122 0.9872883558273315 -0.005060199648141861 -1.1287753342039808 -6.304406790097447 -0.06216581025356412 -81.25993597158303 -28.39932847835741 -47.18219599316158 85.68138318020783 -35.034905293146984 62.038804216537216 0.0 0.0 0.0 -7.44565011774133 -3.0072248103097956 -0.9436072433902224 7.430989582105767 -4.840095609387329 1.2521881984448051 3.624172738104365 31.71389191796783 -1.980513997220476 -4.072188317309948 1.2631260391949344 -0.14439231065785835 2.8415708887298003 -0.6664236277314088 0.1579905636077054 -0.3616487041624205 0.5259855455645338 0.1849876751276282 57.088667685568545 -49.70839292600548 41.011837987657856 -39.338285715358865 -47.454290530057214 -22.134632956452553 -0.2751128328868605 -1.2017576047810503 0.23343586091336122 -13.432551987231923 -6.3246388227186925 7.846013930390212 12.676648743226194 -7.621465188158206 -6.5654331226349685 64.53023884315819 79.58041998040412 -68.42688883646613 -50.479507602659716 -3.555248796703118 14.823544012672055 63.83900661166083 -19.800335953928542 -15.053721474656857 -54.75615767073659 -18.44018040994263 47.84551767256684 58.33079503986843 -23.903347392173988 -28.08429109612965 4.085293653238899 -35.6978088624788 -12.027131752720955 -11.808156871598456 -20.06437123585261 7.608536583202788
-0.002464036224409938 0.9874616861343384 -0.006177733652293682 -1.14724357754842 -6.331559836441679 -0.06345567378337885 -81.28452539903125 -28.37176851681264 -47.187968033498976 85.59429518761183 -35.019327517102816 62.05646930208839 0.0 0.0 0.0 -7.3954523367884555 -2.9583796019535566 -0.9246214993280486 7.417127198792693 -4.806427323519763 1.2417093237931771 3.6183810927861324 31.545333875374055 -1.9897587641458832 -4.049638271255256 1.2480678569895067 -0.13923594691689692 2.8436598358777503 -0.6578096955800549 0.15548569488949485 -0.36485545490721916 0.5341893484889152 0.18491081835632672 56.95270645203265 -49.810764567544716 40.89991015281201 -39.37495475535338 -47.561843187223815 -22.17183363895246 -0.27399993421103885 -1.2110753129722063 0.233530043623012 -13.438491660959304 -6.322572721427769 7.811810105428675 12.70465440514761 -7.651994714963277 -6.529813287874192 64.2124714087988 79.78088500911782 -68.2177121137056 -50.648174252771156 -3.5170956288445385 14.740322722040364 63.943841405453206 -19.645898487717286 -14.862243432661877 -55.129619522176675 -18.311533853904596 47.42980120132285 58.68211320228226 -23.80192388522197 -27.69411584843779 4.2096884036293405 -35.77640271087899 -11.882817344959722 -11.810630080669833 -19.969158737642445 7.502311895786631
